<svg xmlns="http://www.w3.org/2000/svg" xmlns:xlink="http://www.w3.org/1999/xlink" viewBox="0 0 690 416"><defs><style>.cls-1,.cls-4{fill:none;}.cls-2{isolation:isolate;}.cls-3{fill:#069;}.cls-4{stroke:#64ffda;stroke-linecap:round;stroke-linejoin:round;stroke-width:5px;stroke-dasharray:0 11.96;}.cls-5{fill:#64ffda;}.cls-6{fill:#fff;}.cls-7{fill:#ffba4e;}.cls-8{fill:#a6a6a6;}.cls-9{fill:#aaa;}.cls-10{fill:#c7c7c7;}.cls-11{fill:#d69247;}.cls-12{fill:#cf6845;}.cls-13{fill:#ffe7de;}.cls-14{clip-path:url(#clip-path);}.cls-15{fill:#f2d29d;}.cls-16{fill:#e3c593;}.cls-17{fill:#edcd99;}.cls-18{fill:#ffdca4;}.cls-19{fill:#5e523d;}.cls-20{fill:#d6d6d6;}.cls-21{fill:#e0724a;}.cls-22{fill:#ff8154;}.cls-23{fill:#f0f0f0;}.cls-24{fill:#4b5669;}.cls-25{fill:#616f87;}.cls-26{fill:#bf613f;}.cls-27{opacity:0.07;mix-blend-mode:multiply;}</style><clipPath id="clip-path"><path class="cls-1" d="M436.36,178.45a90.83,90.83,0,1,0-179.48,19.84,90.83,90.83,0,1,0,177.3,0A90.63,90.63,0,0,0,436.36,178.45Z"/></clipPath></defs><title>103511-OM1GBY-922</title><g class="cls-2"><g id="ARTBOARD2"><rect class="cls-3" width="690" height="416"/><circle class="cls-4" cx="345.53" cy="223.47" r="131.3"/><path class="cls-5" d="M429.46,57.2l-.23.29a15.65,15.65,0,0,0-2.13,3.67l1.71,1.61a12.92,12.92,0,0,0-.67,3.62L426,67.51a15.23,15.23,0,0,0,.77,4.28l2.34.14a13.44,13.44,0,0,0,2.11,3.51l-.91,2.2a16.47,16.47,0,0,0,1.58,1.42,14.42,14.42,0,0,0,1.77,1.19l1.91-1.42a13.26,13.26,0,0,0,3.92,1.2l.7,2.24a15.49,15.49,0,0,0,4.35-.29l.56-2.36a13.65,13.65,0,0,0,3.35-1.52l2,1.26a15.42,15.42,0,0,0,3-3l.23-.3-1.11-2.2a13.32,13.32,0,0,0,1.3-2.76l2.34-.31a15.33,15.33,0,0,0,.46-4.86l-2.26-1a14.38,14.38,0,0,0-.6-2.43l1.62-1.77a15.15,15.15,0,0,0-2.75-4.23l-2.34.7c-.28-.26-.57-.51-.87-.74s-.61-.46-.93-.67l.11-2.44a15.5,15.5,0,0,0-4.78-1.64l-1.31,2a13.91,13.91,0,0,0-2.5,0l-1.5-2a15.23,15.23,0,0,0-4.6,1.63l.27,2.34a13.11,13.11,0,0,0-2.36,1.93ZM447,59.69a9.21,9.21,0,1,1-12.92,1.6A9.21,9.21,0,0,1,447,59.69Z"/><path class="cls-5" d="M398,63.56l-.23.29a15.41,15.41,0,0,0-2.12,3.67l1.7,1.61a12.86,12.86,0,0,0-.67,3.62l-2.15,1.11a15.3,15.3,0,0,0,.77,4.29l2.34.14a13,13,0,0,0,2.12,3.5l-.92,2.2a15.55,15.55,0,0,0,1.59,1.43,16.48,16.48,0,0,0,1.76,1.19l1.91-1.42a13.26,13.26,0,0,0,3.92,1.2l.7,2.24a15.49,15.49,0,0,0,4.35-.29l.56-2.36A13.32,13.32,0,0,0,417,84.45l2,1.26a15.14,15.14,0,0,0,3-2.95l.23-.29-1.11-2.21a13.08,13.08,0,0,0,1.3-2.76l2.34-.3a15.39,15.39,0,0,0,.47-4.86l-2.27-1a12.88,12.88,0,0,0-.6-2.43L424,67.17a15,15,0,0,0-2.75-4.23l-2.34.7c-.28-.26-.56-.51-.87-.75s-.61-.45-.93-.66l.11-2.44a15.27,15.27,0,0,0-4.77-1.64l-1.32,2a13,13,0,0,0-2.5,0l-1.5-2a15.32,15.32,0,0,0-4.6,1.63l.27,2.34a12.7,12.7,0,0,0-2.36,1.93Zm17.55,2.49a9.2,9.2,0,1,1-12.92,1.59A9.21,9.21,0,0,1,415.57,66.05Z"/><path class="cls-5" d="M430.92,89.25c-.08.09-.15.19-.23.29a15.39,15.39,0,0,0-2.13,3.66l1.71,1.61a12.92,12.92,0,0,0-.67,3.62l-2.15,1.12a15.23,15.23,0,0,0,.77,4.28l2.34.14a13.44,13.44,0,0,0,2.11,3.51l-.91,2.2a16.47,16.47,0,0,0,1.58,1.42,14.42,14.42,0,0,0,1.77,1.19l1.91-1.42a13.26,13.26,0,0,0,3.92,1.2l.7,2.24A15.49,15.49,0,0,0,446,114l.56-2.36a13.65,13.65,0,0,0,3.35-1.52l2,1.26a15.42,15.42,0,0,0,3-3l.23-.3L454,106a13.08,13.08,0,0,0,1.3-2.76l2.34-.31a15.3,15.3,0,0,0,.46-4.85l-2.26-1a14.38,14.38,0,0,0-.6-2.43l1.62-1.77a15.15,15.15,0,0,0-2.75-4.23l-2.34.7c-.28-.26-.57-.51-.87-.74s-.61-.46-.93-.67l.11-2.44a15.5,15.5,0,0,0-4.78-1.64l-1.31,2a13.91,13.91,0,0,0-2.5,0l-1.5-2a15.23,15.23,0,0,0-4.6,1.63l.27,2.34a13.11,13.11,0,0,0-2.36,1.93Zm17.54,2.49a9.2,9.2,0,1,1-12.92,1.59A9.2,9.2,0,0,1,448.46,91.74Z"/><path class="cls-6" d="M245.35,162.77c-3-14-21.35-21.85-40.93-17.61s-33,19-30,33,21.36,21.85,40.94,17.61a49.32,49.32,0,0,0,13.15-4.86l13.32,3.41L235.66,186C243.2,179.51,247.14,171,245.35,162.77Z"/><path class="cls-7" d="M258.46,152c-3-14-21.35-21.85-40.93-17.61s-33,19-30,33,21.35,21.85,40.94,17.6a49.09,49.09,0,0,0,13.15-4.85l13.31,3.41-6.17-8.32C256.31,168.71,260.25,160.2,258.46,152Z"/><path class="cls-3" d="M222.06,163.19a7.85,7.85,0,0,1,1.39-7.31,17.75,17.75,0,0,0,1.64-2.81,4.22,4.22,0,0,0,.2-2.43,3.63,3.63,0,0,0-1.35-2.32,3.19,3.19,0,0,0-2.56-.34,3.49,3.49,0,0,0-2.22,1.36,3,3,0,0,0-.42,2.47l-4.22.91a6.35,6.35,0,0,1,1-5.32,8.19,8.19,0,0,1,5.06-3,8,8,0,0,1,5.82.6,6.5,6.5,0,0,1,3,4.53,8.3,8.3,0,0,1-1.43,6.15l-1.68,2.57a5.82,5.82,0,0,0-.36,4.06Zm.87,5.46a2.28,2.28,0,0,1,.29-1.79,2.43,2.43,0,0,1,1.6-1,2.4,2.4,0,0,1,1.89.27,2.29,2.29,0,0,1,1,1.5,2.23,2.23,0,0,1-.28,1.72,2.82,2.82,0,0,1-3.54.77A2.27,2.27,0,0,1,222.93,168.65Z"/><rect class="cls-8" x="213.21" y="268.44" width="30.86" height="52.6" rx="4.81" ry="4.81" transform="translate(-31.66 27.54) rotate(-6.45)"/><rect class="cls-6" x="212.94" y="266.03" width="30.86" height="52.6" rx="4.81" ry="4.81" transform="translate(-31.39 27.5) rotate(-6.45)"/><rect class="cls-9" x="214.89" y="272.23" width="26.95" height="40.19" transform="translate(-31.39 27.5) rotate(-6.45)"/><path class="cls-10" d="M233,315.29a2,2,0,1,1-2.25-1.79A2,2,0,0,1,233,315.29Z"/><path class="cls-5" d="M486.17,218.15l-4.79,4.39L490,222a30.78,30.78,0,0,0,7.52,4.54c11.56,4.93,23.79,2.24,27.3-6s-3-18.92-14.58-23.85-23.78-2.23-27.29,6C480.87,207.57,482.29,213.28,486.17,218.15Zm26-2.71a3,3,0,0,1,3.89-1.56,3,3,0,1,1-3.89,1.56ZM501.65,211a3,3,0,1,1,1.57,3.89A3,3,0,0,1,501.65,211Zm-10.48-4.46a3,3,0,1,1,1.57,3.88A3,3,0,0,1,491.17,206.51Z"/><path class="cls-5" d="M176.2,216.72a22.48,22.48,0,1,0,30.39,9.34A22.51,22.51,0,0,0,176.2,216.72Zm27.45,9.43-6.51,3.45c-3.58-6.3-8.3-10.85-12.8-12.76A19.93,19.93,0,0,1,203.65,226.15Zm-27.3-6.37L185,236.05l-7.59,4C173.28,231.67,172.9,223,176.35,219.78Zm9.83,18.56,8.62,16.27c-4.63,1-11.56-4.14-16.21-12.25Zm10.91,15.06-8.62-16.27,7.59-4C200.16,241.51,200.54,250.14,197.09,253.4Zm-9.83-18.56-8.62-16.27c4.63-1,11.56,4.14,16.21,12.25Zm-15.54-11.31c-.94,4.79.17,11.25,3.37,17.76l-6.51,3.44A19.9,19.9,0,0,1,171.72,223.53ZM169.79,247l6.51-3.45c3.58,6.31,8.3,10.85,12.8,12.76A19.91,19.91,0,0,1,169.79,247Zm31.93,2.63c.94-4.79-.17-11.25-3.36-17.76l6.5-3.45A19.92,19.92,0,0,1,201.72,249.65Z"/><rect class="cls-11" x="455" y="246.72" width="40.01" height="50.87" rx="4.49" ry="4.49" transform="translate(109.76 -135.63) rotate(18.34)"/><path class="cls-7" d="M482.21,292.26l13.29-40.11-27.22-9a4.48,4.48,0,0,0-5.67,2.85l-13.18,39.76a4.49,4.49,0,0,0,2.84,5.68l29.46,9.76a4.49,4.49,0,0,0,5.68-2.85l1.3-3.92Z"/><path class="cls-11" d="M463.86,251.47l-5.53-1.83a1.17,1.17,0,0,1-.74-1.47h0a1.16,1.16,0,0,1,1.47-.74l5.53,1.83a1.15,1.15,0,0,1,.73,1.47h0A1.15,1.15,0,0,1,463.86,251.47Z"/><path class="cls-11" d="M462.3,256.16l-5.53-1.84a1.15,1.15,0,0,1-.74-1.46h0a1.17,1.17,0,0,1,1.47-.74L463,254a1.16,1.16,0,0,1,.74,1.47h0A1.16,1.16,0,0,1,462.3,256.16Z"/><path class="cls-11" d="M460.75,260.85,455.22,259a1.16,1.16,0,0,1-.74-1.46h0a1.16,1.16,0,0,1,1.47-.74l5.53,1.83a1.16,1.16,0,0,1,.74,1.47h0A1.17,1.17,0,0,1,460.75,260.85Z"/><path class="cls-11" d="M459.19,265.54l-5.53-1.84a1.16,1.16,0,0,1-.74-1.47h0a1.16,1.16,0,0,1,1.47-.73l5.53,1.83a1.16,1.16,0,0,1,.74,1.47h0A1.16,1.16,0,0,1,459.19,265.54Z"/><path class="cls-11" d="M457.64,270.23l-5.53-1.84a1.16,1.16,0,0,1-.74-1.47h0a1.15,1.15,0,0,1,1.47-.73l5.53,1.83a1.16,1.16,0,0,1,.74,1.47h0A1.16,1.16,0,0,1,457.64,270.23Z"/><path class="cls-11" d="M456.08,274.91l-5.53-1.83a1.15,1.15,0,0,1-.73-1.47h0a1.16,1.16,0,0,1,1.47-.74l5.53,1.84a1.15,1.15,0,0,1,.73,1.47h0A1.15,1.15,0,0,1,456.08,274.91Z"/><path class="cls-11" d="M454.53,279.6,449,277.77a1.16,1.16,0,0,1-.74-1.47h0a1.16,1.16,0,0,1,1.47-.74l5.53,1.84a1.16,1.16,0,0,1,.74,1.47h0A1.15,1.15,0,0,1,454.53,279.6Z"/><path class="cls-11" d="M453,284.29l-5.54-1.83a1.17,1.17,0,0,1-.73-1.47h0a1.16,1.16,0,0,1,1.47-.74l5.53,1.84a1.15,1.15,0,0,1,.73,1.47h0A1.16,1.16,0,0,1,453,284.29Z"/><path class="cls-12" d="M479,284.64h0S479,284.66,479,284.64Z"/><path class="cls-12" d="M473.76,258.76Z"/><path class="cls-13" d="M467.57,261.11a10.05,10.05,0,0,0-1.81,6.63,22.39,22.39,0,0,0,.8,4.66,20.07,20.07,0,0,1,.48,2.43,22.68,22.68,0,0,0,1.06,4.61,10,10,0,0,0,4.23,5.42,6.14,6.14,0,0,0,6.62-.21s0-.06,0,0l-1.35-6.73a5.21,5.21,0,0,0-3.44.15,19.43,19.43,0,0,1-2.27-11.36,5.14,5.14,0,0,0,3.22-1.18l-1.34-6.73s0,0,0,0A6.1,6.1,0,0,0,467.57,261.11Z"/><polygon class="cls-5" points="295.89 78.03 307.48 58.77 306.41 56.51 272.58 72.48 273.65 74.74 295.89 78.03"/><polygon class="cls-5" points="296.6 79.52 274.36 76.23 283.6 95.8 317.43 79.82 308.18 60.26 296.6 79.52"/><g class="cls-14"><rect class="cls-15" x="319.91" y="193.35" width="51.23" height="58.89"/><path class="cls-16" d="M319.91,226.13a26,26,0,0,0,5.39,4.37l14.47,8.79a25.85,25.85,0,0,0,26.87,0l4.51-2.74v-43.2H319.91Z"/><path class="cls-17" d="M313.18,200.38c-4.74-1.67-7.24-7-9.24-11.82-1.84-4.45-3.7-9-4.08-13.83-.17-2.18.09-4.65,1.68-6a5,5,0,0,1,4.59-.83,15.2,15.2,0,0,1,4.32,2.24C319,175.74,317.4,190.76,313.18,200.38Z"/><path class="cls-17" d="M380.26,199.45c4.74-1.66,7.24-7,9.24-11.82,1.84-4.44,3.7-9,4.08-13.83.17-2.18-.08-4.64-1.68-6a5,5,0,0,0-4.59-.84,15.1,15.1,0,0,0-4.32,2.25C374.48,174.82,376.05,189.83,380.26,199.45Z"/><path class="cls-18" d="M373.1,222.21,359.36,231a23.49,23.49,0,0,1-25.51,0l-13.73-8.79a26.17,26.17,0,0,1-11.81-22.11V145.72h76.6V200.1A26.19,26.19,0,0,1,373.1,222.21Z"/><path class="cls-19" d="M383.9,187.74c-.3-6.17-2-12.66-3.48-18.63a122.26,122.26,0,0,1-60.35-19.39,58.84,58.84,0,0,1-5.74,24.52c-2.21,4.61-5.12,9.35-4.53,14.48-2.11-4.71-3.85-9-6-13.71-2.49-5.55-5-11.14-6.33-17.11s-1.44-12.42.81-18.08a21.49,21.49,0,0,1,15.29-13.06,36.08,36.08,0,0,1,21.06-16.55c8.52-2.47,17.53-2.29,26.29-1.19,10.55,1.33,21.88,4.58,28.11,13.64,4.38,6.37,5.48,14.61,5.44,22.48A90.75,90.75,0,0,1,383.9,187.74Z"/><path class="cls-20" d="M345.53,248.35,320,234.76l-7.36,6.8-20.54,8.8a46.73,46.73,0,0,0-25.81,27.85l-4.12,30.17h83.41Z"/><path class="cls-20" d="M345.53,248.35l25.58-13.59,7.36,6.8,20.54,8.8a46.73,46.73,0,0,1,25.81,27.85l4.12,30.17H345.53Z"/><polygon class="cls-21" points="345.53 253.86 332.93 301.05 335.44 308.38 355.62 308.38 358.16 300.96 345.53 253.86"/><path class="cls-22" d="M341,264.75l-3.74-6.47a5.2,5.2,0,0,1,4.51-7.8h7.46a5.2,5.2,0,0,1,4.51,7.8L350,264.75A5.2,5.2,0,0,1,341,264.75Z"/><polygon class="cls-23" points="378.47 241.56 386.81 245.13 368.85 281.2 345.53 248.35 371.11 234.76 378.47 241.56"/><path class="cls-24" d="M428.94,308.38H355.62l22.85-66.82,20.54,8.8a46.73,46.73,0,0,1,25.81,27.85Z"/><path class="cls-25" d="M398,249.92c-9.12,8.84-17.8,17.12-17.8,17.12L388.1,275l-22.39,33.41H355.62l22.85-66.82Z"/><polygon class="cls-23" points="312.59 241.56 304.25 245.13 322.21 281.2 345.53 248.35 319.95 234.76 312.59 241.56"/><path class="cls-24" d="M262.12,308.38h73.32l-22.85-66.82-20.54,8.8a46.73,46.73,0,0,0-25.81,27.85Z"/><path class="cls-25" d="M293.09,249.92c9.12,8.84,17.8,17.12,17.8,17.12L303,275l22.39,33.41h10.09l-22.85-66.82Z"/><path class="cls-26" d="M302.43,199.45h-5.66V166.13a49.84,49.84,0,1,1,99.67,0v32h-5.66v-32a44.18,44.18,0,1,0-88.35,0Z"/><path class="cls-22" d="M299.76,166h0a0,0,0,0,1,0,0v34.12a0,0,0,0,1,0,0h0a10.28,10.28,0,0,1-10.28-10.28V176.3A10.28,10.28,0,0,1,299.76,166Z"/><rect class="cls-26" x="299.76" y="163.29" width="8.31" height="39.58" rx="2.33" ry="2.33"/><path class="cls-26" d="M352,228.24a2.83,2.83,0,0,1-.82-5.54l10.2-3.1a45.86,45.86,0,0,0,30.48-30.2,2.83,2.83,0,1,1,5.4,1.69A51.5,51.5,0,0,1,363,225l-10.2,3.09A2.6,2.6,0,0,1,352,228.24Z"/><path class="cls-22" d="M403.8,166h0a0,0,0,0,1,0,0v34.12a0,0,0,0,1,0,0h0a10.28,10.28,0,0,1-10.28-10.28V176.3A10.28,10.28,0,0,1,403.8,166Z" transform="translate(797.33 366.16) rotate(-180)"/><rect class="cls-26" x="385.21" y="163.29" width="8.31" height="39.58" rx="2.33" ry="2.33" transform="translate(778.73 366.16) rotate(180)"/><path class="cls-27" d="M399,250.36l-1-.44-19.5-8.36-7.32-6.76V223.46l2-1.25a24.84,24.84,0,0,0,6-5.39,51.52,51.52,0,0,0,12.79-14,2.35,2.35,0,0,0,1.64-2.23v-.4h0a10.28,10.28,0,0,0,10.28-10.28V176.3a10.28,10.28,0,0,0-7.36-9.86v-.31a49.43,49.43,0,0,0-2.19-14.63q.22-3.18.26-6.36c0-7.87-1.06-16.11-5.44-22.48C382.84,113.6,371.51,110.35,361,109a83,83,0,0,0-15.43-.64v200h83.41l-4.12-30.17A46.73,46.73,0,0,0,399,250.36Zm-14.1-50.26v-4l.3-.37v4.86a2.29,2.29,0,0,0,.46,1.38c-.31.44-.62.88-.95,1.31A27.11,27.11,0,0,0,384.91,200.1Z"/></g><circle class="cls-7" cx="454.8" cy="155.41" r="25.42" transform="translate(258.21 593.98) rotate(-84.72)"/><circle class="cls-6" cx="454.8" cy="155.41" r="21.21" transform="translate(207.69 567.64) rotate(-77.92)"/><path class="cls-3" d="M438.6,151.49a.19.19,0,0,0,0-.07l-2.71-.66a.25.25,0,0,0,0,.07,19.12,19.12,0,0,0-.38,2.09l2.73.66A16.92,16.92,0,0,1,438.6,151.49Z"/><path class="cls-3" d="M471,159.33a16.92,16.92,0,0,1-.63,2l2.74.66c.23-.66.44-1.33.61-2,0,0,0,0,0-.07l-2.71-.65A.64.64,0,0,0,471,159.33Z"/><path class="cls-3" d="M458.24,136.26l-.66,2.72c.38.06.76.14,1.14.23s.67.17,1,.27l.66-2.72-1-.27C459,136.4,458.62,136.33,458.24,136.26Z"/><path class="cls-3" d="M451.23,174.54l.66-2.72c-.34-.06-.67-.13-1-.21s-.75-.2-1.11-.32l-.66,2.72c.37.12.74.22,1.12.31S450.9,174.48,451.23,174.54Z"/><path class="cls-3" d="M447.47,158.13l-6.38-1.54.27-1.09,4-2.68a8.53,8.53,0,0,0,1.28-1,2.19,2.19,0,0,0,.53-1,1.62,1.62,0,0,0-.11-1.18,1.4,1.4,0,0,0-.93-.67,1.59,1.59,0,0,0-1.3.18,1.9,1.9,0,0,0-.73,1.18l-1.58-.38a3,3,0,0,1,.77-1.46,2.77,2.77,0,0,1,1.38-.81,3.59,3.59,0,0,1,1.78,0,3.25,3.25,0,0,1,2,1.22,2.48,2.48,0,0,1,.34,2.1,3.37,3.37,0,0,1-.76,1.39,8.85,8.85,0,0,1-1.74,1.45l-2.92,1.92,4.4,1.07Z"/><path class="cls-3" d="M454.83,156.34l1.18.28-.3,1.27-1.18-.28-.51,2.1-1.58-.38.51-2.11-4.1-1,.19-1,5.64-5.41,1.63.39Zm-4.06-1,2.48.59,1-3.95-.17.18Z"/><path class="cls-3" d="M456.59,161.2l-1.24-.3,6.22-9.39,1.24.3Z"/><path class="cls-3" d="M469.9,154.46,464,162.14l-1.66-.4,5.77-7.3-4.9-1.18.31-1.27,6.56,1.59Z"/><path class="cls-3" d="M443.12,162l-.49-.12.3-1.26-1.27-.31-.3,1.26-.5-.11.69-2.84.49.12-.28,1.18,1.27.3.28-1.18.49.12Z"/><path class="cls-3" d="M443.83,161a1.15,1.15,0,0,1,.25-.52.87.87,0,0,1,.44-.3.9.9,0,0,1,.54,0,.92.92,0,0,1,.63.44,1.13,1.13,0,0,1,.11.8l0,.11a1.32,1.32,0,0,1-.26.53,1,1,0,0,1-.43.3,1.13,1.13,0,0,1-.55,0,1,1,0,0,1-.64-.47,1.14,1.14,0,0,1-.08-.86Zm.46.16a.88.88,0,0,0,0,.54.45.45,0,0,0,.33.28.45.45,0,0,0,.42-.1.88.88,0,0,0,.26-.52.82.82,0,0,0,0-.54.46.46,0,0,0-.33-.27.44.44,0,0,0-.41.09A1,1,0,0,0,444.29,161.17Z"/><path class="cls-3" d="M447.26,162.76a.78.78,0,0,1-.66.11.7.7,0,0,1-.47-.33.93.93,0,0,1,0-.63l.33-1.36.47.11-.33,1.36c-.06.27,0,.43.24.49a.48.48,0,0,0,.52-.14l.37-1.51.47.11-.51,2.11-.44-.11Z"/><path class="cls-3" d="M449.66,161.79l-.19-.07a.45.45,0,0,0-.5.15l-.35,1.44-.47-.11.51-2.11.45.11-.05.24a.54.54,0,0,1,.54-.16.38.38,0,0,1,.17.06Z"/><path class="cls-3" d="M450.87,163.25a.23.23,0,0,0-.06-.22,1,1,0,0,0-.31-.2,1.66,1.66,0,0,1-.38-.23.56.56,0,0,1-.23-.58.59.59,0,0,1,.34-.4,1.09,1.09,0,0,1,1.19.29.61.61,0,0,1,.12.55l-.47-.12a.32.32,0,0,0-.05-.25.38.38,0,0,0-.25-.16.49.49,0,0,0-.27,0,.24.24,0,0,0-.14.17.21.21,0,0,0,.05.2,1.47,1.47,0,0,0,.34.21,1.74,1.74,0,0,1,.4.25.75.75,0,0,1,.19.26.54.54,0,0,1,0,.31.55.55,0,0,1-.34.4,1,1,0,0,1-.66,0,1,1,0,0,1-.44-.21.75.75,0,0,1-.26-.33.63.63,0,0,1,0-.38l.47.11a.33.33,0,0,0,.06.29.48.48,0,0,0,.29.16.51.51,0,0,0,.3,0A.21.21,0,0,0,450.87,163.25Z"/><path class="cls-3" d="M457.53,165.47l.68-2.84.84.2a1.36,1.36,0,0,1,.63.33,1.16,1.16,0,0,1,.33.58,1.47,1.47,0,0,1,0,.75l0,.14a1.68,1.68,0,0,1-.33.67,1.14,1.14,0,0,1-.58.36,1.35,1.35,0,0,1-.72,0Zm1.08-2.33-.5,2.05.33.08a.76.76,0,0,0,.65-.1,1.09,1.09,0,0,0,.38-.65l0-.15a1.19,1.19,0,0,0,0-.76.75.75,0,0,0-.53-.38Z"/><path class="cls-3" d="M461.35,166.39a1.1,1.1,0,0,1,0-.21.73.73,0,0,1-.61.1.75.75,0,0,1-.47-.3.6.6,0,0,1-.1-.5.62.62,0,0,1,.38-.46,1.29,1.29,0,0,1,.76,0l.29.07,0-.13a.4.4,0,0,0,0-.29.38.38,0,0,0-.26-.16.44.44,0,0,0-.28,0,.26.26,0,0,0-.16.18l-.47-.11a.54.54,0,0,1,.19-.3.89.89,0,0,1,.37-.16,1.2,1.2,0,0,1,.46,0,.92.92,0,0,1,.55.33.68.68,0,0,1,.1.58l-.23.95a1,1,0,0,0,0,.47v0Zm-.44-.47a.53.53,0,0,0,.28,0,.45.45,0,0,0,.23-.14l.1-.4-.26-.06a.74.74,0,0,0-.42,0,.3.3,0,0,0-.19.22.27.27,0,0,0,0,.24A.34.34,0,0,0,460.91,165.92Z"/><path class="cls-3" d="M463.12,166.1l.78-1.33.5.13L463,167.12a.71.71,0,0,1-.79.38l-.22-.09.09-.37.09,0a.7.7,0,0,0,.29,0,.49.49,0,0,0,.19-.19l.11-.16-.23-2.28.51.12Z"/><path class="cls-3" d="M465.49,166.78a.21.21,0,0,0-.06-.21,1.19,1.19,0,0,0-.32-.2,2,2,0,0,1-.37-.23.56.56,0,0,1-.24-.58.57.57,0,0,1,.34-.4,1,1,0,0,1,.63,0,1,1,0,0,1,.57.34.61.61,0,0,1,.11.54l-.47-.11a.3.3,0,0,0-.05-.26.42.42,0,0,0-.24-.15.44.44,0,0,0-.28,0,.24.24,0,0,0-.14.17.19.19,0,0,0,0,.19,1.11,1.11,0,0,0,.34.21,1.87,1.87,0,0,1,.4.25.62.62,0,0,1,.19.26.65.65,0,0,1,0,.31.58.58,0,0,1-.35.41,1,1,0,0,1-.66,0,1.19,1.19,0,0,1-.44-.2.74.74,0,0,1-.25-.34.62.62,0,0,1,0-.38l.46.12a.34.34,0,0,0,.06.28.52.52,0,0,0,.29.17.5.5,0,0,0,.3,0A.23.23,0,0,0,465.49,166.78Z"/><path class="cls-6" d="M242.49,338.85c-12.27,5.23-19.19,16.56-15.47,25.31,2.2,5.15,7.61,8.26,14.19,8.87l-.16,6.89,5.93-7a32.41,32.41,0,0,0,9-2.42c12.26-5.22,19.19-16.55,15.46-25.3S254.76,333.63,242.49,338.85Zm12,24.29-3.29,1.64-1.54-3.08,3.29-1.64Zm-2-12.85a13.51,13.51,0,0,1-1.14,3.85,3.42,3.42,0,0,0-.32,1.73,6.75,6.75,0,0,0,.68,1.84l-3.22,1.61a7.15,7.15,0,0,1-.91-2.93,8.83,8.83,0,0,1,.86-3,13.55,13.55,0,0,0,.68-2.75,4,4,0,0,0-.41-2.33,3.08,3.08,0,0,0-1.69-1.65,3,3,0,0,0-2.33.28,3.31,3.31,0,0,0-1.57,1.54,2.38,2.38,0,0,0,.12,2.16l-3.09,1.55-.08-.06a4.89,4.89,0,0,1-.26-4.46,7.18,7.18,0,0,1,3.54-3.41,6.89,6.89,0,0,1,5-.75,5.67,5.67,0,0,1,3.52,3.15A6.11,6.11,0,0,1,252.45,350.29Z"/><path class="cls-7" d="M346.81,33.41h0a17,17,0,0,0-14.72,25.48l14.72,25.48,14.71-25.48A17,17,0,0,0,346.81,33.41Zm10.88,23.27h0a12.57,12.57,0,0,1-21.77,0h0a12.57,12.57,0,0,1,10.89-18.85h0A12.57,12.57,0,0,1,357.69,56.68Z"/><path class="cls-5" d="M475.35,336.83h0S475.37,336.82,475.35,336.83Z"/><path class="cls-5" d="M446.35,356.09s0,0,0,0Z"/><path class="cls-5" d="M452.31,362.47a13.23,13.23,0,0,0,9-1.1,30.19,30.19,0,0,0,5.29-3.3,27.18,27.18,0,0,1,2.71-1.81,29.44,29.44,0,0,0,5.1-3.59,13.26,13.26,0,0,0,4.51-7.87,8.05,8.05,0,0,0-3.57-8s-.05.06,0,0l-7.54,5a6.88,6.88,0,0,0,1.9,4.11A25.46,25.46,0,0,1,457,354.44a6.91,6.91,0,0,0-3.05-3.35l-7.54,5s0,0,0,0A8.05,8.05,0,0,0,452.31,362.47Z"/><path class="cls-5" d="M473.11,333.79a1.38,1.38,0,0,1-1.91-.35,16,16,0,0,0-26.28,18.15,1.37,1.37,0,0,1-2.26,1.56,18.71,18.71,0,1,1,30.79-21.27A1.38,1.38,0,0,1,473.11,333.79Z"/><path class="cls-5" d="M468.59,336.91a1.38,1.38,0,0,1-1.91-.35,10.48,10.48,0,1,0-17.25,11.92,1.37,1.37,0,0,1-2.26,1.56,13.23,13.23,0,1,1,21.77-15A1.37,1.37,0,0,1,468.59,336.91Z"/><path class="cls-5" d="M464.64,339.63a1.36,1.36,0,0,1-1.9-.35,5.69,5.69,0,0,0-9.36,6.47,1.37,1.37,0,0,1-2.26,1.56A8.43,8.43,0,1,1,465,337.73,1.36,1.36,0,0,1,464.64,339.63Z"/><polygon class="cls-5" points="267.33 105.12 258.48 86.32 255.28 90.93 243.57 82.8 238.12 90.65 249.82 98.78 246.62 103.39 267.33 105.12"/><polygon class="cls-5" points="216.72 86.48 237.42 88.22 234.22 92.83 245.93 100.96 240.47 108.81 228.77 100.68 225.57 105.28 216.72 86.48"/><path class="cls-5" d="M514.94,128.7a11.5,11.5,0,0,1-2.07,6.65,6.1,6.1,0,0,1-5.09,2.47,4.71,4.71,0,0,1-2.43-.61,3.74,3.74,0,0,1-1.54-1.74,5,5,0,0,1-4.28,2.3,4.19,4.19,0,0,1-3.7-2,8.1,8.1,0,0,1-1-5.32,13.72,13.72,0,0,1,1.37-4.8,8.48,8.48,0,0,1,2.71-3.23,6,6,0,0,1,3.53-1.13,7.18,7.18,0,0,1,4,1.08l1,.7-.84,9.46a2.92,2.92,0,0,0,.29,2,1.59,1.59,0,0,0,1.43.69,2.92,2.92,0,0,0,2.52-1.76,9.87,9.87,0,0,0,1.12-4.61c.18-3.81-.58-6.73-2.3-8.78s-4.27-3.07-7.64-3.07a10.18,10.18,0,0,0-5.63,1.6,11,11,0,0,0-3.9,4.56,17.33,17.33,0,0,0-1.6,6.77c-.18,3.87.6,6.85,2.32,9S497.57,142,501,142a14.37,14.37,0,0,0,2.84-.3,11.12,11.12,0,0,0,2.57-.81l.63,2.52a8.58,8.58,0,0,1-2.7,1.06,15.13,15.13,0,0,1-3.41.4,14.54,14.54,0,0,1-7.37-1.75A10.68,10.68,0,0,1,489,138a18.06,18.06,0,0,1-1.3-8.11,19.17,19.17,0,0,1,2.06-8.1,14.26,14.26,0,0,1,19.42-5.74,10.9,10.9,0,0,1,4.43,5A16.56,16.56,0,0,1,514.94,128.7Zm-16.45,1.73a6.4,6.4,0,0,0,.37,3.28,1.88,1.88,0,0,0,1.8,1.13,2.16,2.16,0,0,0,1.52-.71,5.3,5.3,0,0,0,1.2-2l.69-7.74a4.18,4.18,0,0,0-1.31-.21,3.28,3.28,0,0,0-2.92,1.6A10.5,10.5,0,0,0,498.49,130.43Z"/></g></g></svg>